HIERARCHY
ROOT Hips
{
	OFFSET 0.000000 88.474243 0.000000
	CHANNELS 6 Xposition Yposition Zposition Zrotation Yrotation Xrotation 
	JOINT Hips_Spine
	{
		OFFSET 0.000000 0.000000 0.000000
		CHANNELS 3 Zrotation Yrotation Xrotation
		JOINT Spine
		{
			OFFSET 0.005100 8.711998 -0.691000
			CHANNELS 3 Zrotation Yrotation Xrotation
			JOINT Spine1
			{
				OFFSET -0.009200 8.660301 -1.275000
				CHANNELS 3 Zrotation Yrotation Xrotation
				JOINT Spine2
				{
					OFFSET 0.006300 9.852501 -1.857000
					CHANNELS 3 Zrotation Yrotation Xrotation
					JOINT Spine2_Neck
					{
						OFFSET 0.000000 0.000000 0.000000
						CHANNELS 3 Zrotation Yrotation Xrotation
						JOINT Neck
						{
							OFFSET 0.016300 11.420799 -0.263300
							CHANNELS 3 Zrotation Yrotation Xrotation
							End Site #name: Head
							{
								OFFSET -0.019200 9.262405 2.362500
							}
						}
					}
					JOINT Spine2_LeftShoulder
					{
						OFFSET 0.000000 0.000000 0.000000
						CHANNELS 3 Zrotation Yrotation Xrotation
						JOINT LeftShoulder
						{
							OFFSET 5.616900 6.732201 -0.345700
							CHANNELS 3 Zrotation Yrotation Xrotation
							JOINT LeftArm
							{
								OFFSET 10.664888 -0.183372 -2.440700
								CHANNELS 3 Zrotation Yrotation Xrotation
								JOINT LeftForeArm
								{
									OFFSET 27.459126 0.000000 0.000000
									CHANNELS 3 Zrotation Yrotation Xrotation
									End Site #name: LeftHand
									{
										OFFSET 21.306858 0.000000 0.000000
									}
								}
							}
						}
					}
					JOINT Spine2_RightShoulder
					{
						OFFSET 0.000000 0.000000 0.000000
						CHANNELS 3 Zrotation Yrotation Xrotation
						JOINT RightShoulder
						{
							OFFSET -5.580300 6.737503 -0.344400
							CHANNELS 3 Zrotation Yrotation Xrotation
							JOINT RightArm
							{
								OFFSET -10.679335 -0.188484 -2.383900
								CHANNELS 3 Zrotation Yrotation Xrotation
								JOINT RightForeArm
								{
									OFFSET -27.503529 0.000000 0.000000
									CHANNELS 3 Zrotation Yrotation Xrotation
									End Site #name: RightHand
									{
										OFFSET -21.306808 0.000000 0.000000
									}
								}
							}
						}
					}
				}
			}
		}
	}
	JOINT Hips_LeftUpLeg
	{
		OFFSET 0.000000 0.000000 0.000000
		CHANNELS 3 Zrotation Yrotation Xrotation
		JOINT LeftUpLeg
		{
			OFFSET 6.857700 -6.739601 0.312100
			CHANNELS 3 Zrotation Yrotation Xrotation
			JOINT LeftLeg
			{
				OFFSET -0.367590 -34.731552 -4.572400
				CHANNELS 3 Zrotation Yrotation Xrotation
				End Site #name: LeftFoot
				{
					OFFSET 0.367590 -34.656704 -6.067400
				}
			}
		}
	}
	JOINT Hips_RightUpLeg
	{
		OFFSET 0.000000 0.000000 0.000000
		CHANNELS 3 Zrotation Yrotation Xrotation
		JOINT RightUpLeg
		{
			OFFSET -6.876100 -6.733299 0.301000
			CHANNELS 3 Zrotation Yrotation Xrotation
			JOINT RightLeg
			{
				OFFSET 0.347353 -34.795158 -4.515900
				CHANNELS 3 Zrotation Yrotation Xrotation
				End Site #name: RightFoot
				{
					OFFSET -0.347353 -34.589367 -6.070300
				}
			}
		}
	}
}
MOTION
Frames: 18
Frame Time: 0.041667
0.607683 0.708055 -1.749942 -1.009118 22.201968 -7.178241 -0.000000 0.000000 0.000000 -1.251459 -2.168537 -5.888547 2.398229 -1.389189 -3.284459 0.000000 0.000000 0.000000 2.856856 -1.035230 -3.687046 1.453655 -5.361142 0.288091 1.845809 -1.233928 -3.516681 -23.376652 0.989535 7.634774 -48.636957 15.930475 3.965054 -0.818412 -22.661326 6.150270 1.809066 -1.165914 -1.584679 6.169482 6.514947 1.609026 64.573083 -1.787532 -11.979560 0.800288 40.868262 -0.512217 0.000000 0.000000 -0.000000 -7.388273 21.797313 -4.830431 0.107931 4.414085 19.766252 0.000000 0.000000 0.000000 -5.567063 2.578767 -16.006059 4.186250 -5.917027 11.317466 
0.382384 0.700514 -1.817850 -1.584795 23.834640 -7.655270 -0.000000 0.000000 0.000000 -0.426230 -2.157566 -6.405518 2.596922 -1.389137 -3.252893 0.000000 0.000000 0.000000 3.011086 -0.974432 -3.646217 1.451452 -5.382518 0.401408 2.056606 -1.192144 -3.425139 -22.700806 1.080721 7.714905 -49.694418 16.552409 3.582635 -0.875596 -23.467189 6.019361 1.993223 -1.110432 -1.585656 6.397228 6.636573 1.657151 64.378537 -1.911144 -11.745037 0.806770 41.142520 -0.505805 0.000000 -0.000000 -0.000000 -6.564482 22.093105 -5.039077 0.051729 4.523790 20.633180 0.000000 0.000000 0.000000 -4.773335 2.747081 -16.258495 4.411830 -6.224832 11.569012 
0.185513 0.691074 -1.878256 -2.180123 25.525312 -8.176299 -0.000000 0.000000 0.000000 0.415089 -2.039659 -6.861359 2.785012 -1.387021 -3.212500 0.000000 0.000000 0.000000 3.155568 -0.916557 -3.592089 1.448573 -5.448498 0.558621 2.259141 -1.153266 -3.325213 -22.061242 1.104234 7.797203 -50.629317 17.103193 3.206869 -0.919254 -24.065107 5.926679 2.172158 -1.060569 -1.583644 6.666424 6.767893 1.707749 64.179114 -2.005677 -11.520862 0.815486 41.495776 -0.498504 0.000000 -0.000000 -0.000000 -5.738382 22.343250 -4.873249 -0.087755 4.527559 21.102045 0.000000 0.000000 0.000000 -4.021949 2.920130 -16.465072 4.609551 -6.503358 11.864071 
0.028967 0.681391 -1.936802 -2.692754 27.110584 -8.634334 -0.000000 0.000000 0.000000 1.200891 -1.777262 -7.198515 2.957598 -1.384945 -3.152955 0.000000 0.000000 0.000000 3.286432 -0.860703 -3.525017 1.462219 -5.496126 0.718275 2.444942 -1.114063 -3.215274 -21.485477 1.093595 7.831291 -51.460716 17.652566 2.831284 -0.959121 -24.549561 5.849997 2.335242 -1.008181 -1.570920 6.960984 6.906212 1.759208 63.992009 -2.071371 -11.325856 0.825695 41.901020 -0.490531 0.000000 -0.000000 -0.000000 -5.063477 22.490387 -4.393626 -0.298760 4.398805 21.084170 0.000000 -0.000000 0.000000 -3.332105 3.172084 -16.604506 4.810753 -6.786288 12.117351 
-0.077884 0.672107 -1.995795 -3.068460 28.209989 -9.003748 -0.000000 -0.000000 0.000000 1.868846 -1.571278 -7.333660 3.108781 -1.383823 -3.085013 0.000000 0.000000 0.000000 3.396533 -0.812351 -3.451798 1.506701 -5.509487 0.858134 2.605046 -1.080779 -3.102110 -20.968701 1.056117 7.823169 -52.207308 18.181825 2.431170 -0.998856 -24.974774 5.777417 2.478050 -0.960438 -1.551317 7.266032 7.043011 1.806105 63.811498 -2.104288 -11.168035 0.836858 42.397179 -0.483055 0.000000 -0.000000 -0.000000 -4.520115 22.529752 -3.772889 -0.574703 4.231134 20.813193 0.000000 -0.000000 0.000000 -2.717203 3.585176 -16.744071 5.072039 -6.909951 12.399420 
-0.130118 0.663408 -2.057093 -3.305723 28.722186 -9.268196 -0.000000 -0.000000 0.000000 2.454364 -1.444675 -7.304079 3.237300 -1.387825 -3.006647 0.000000 0.000000 0.000000 3.486905 -0.771856 -3.372339 1.576578 -5.482225 0.996960 2.733326 -1.052314 -2.988972 -20.524058 0.972326 7.805348 -52.855188 18.649231 2.082196 -1.036669 -25.432658 5.699749 2.590339 -0.920094 -1.528557 7.550400 7.169710 1.850992 63.634534 -2.111907 -11.020385 0.846528 42.883436 -0.472619 0.000000 -0.000000 -0.000000 -4.063333 22.500353 -3.095477 -0.945708 3.953123 20.462146 0.000000 -0.000000 0.000000 -2.190181 4.138411 -16.918846 5.307826 -6.991873 12.776378 
-0.122112 0.654909 -2.122461 -3.394439 28.613891 -9.418286 -0.000000 -0.000000 0.000000 2.915653 -1.405287 -7.224284 3.348067 -1.398667 -2.922288 0.000000 0.000000 0.000000 3.561816 -0.742682 -3.278505 1.654170 -5.405061 1.133337 2.839578 -1.035026 -2.879813 -20.154369 0.863170 7.781490 -53.437618 19.031864 1.818607 -1.079368 -25.959300 5.616222 2.686652 -0.895078 -1.499422 7.802729 7.288973 1.887933 63.482348 -2.162622 -10.897240 0.861398 43.408666 -0.459618 0.000000 -0.000000 -0.000000 -3.712533 22.377162 -2.403663 -1.383965 3.548701 20.153467 0.000000 -0.000000 0.000000 -1.753284 4.777484 -17.129323 5.503480 -7.051420 13.243692 
-0.048917 0.647285 -2.191847 -3.343080 27.876404 -9.471449 -0.000000 -0.000000 0.000000 3.151060 -1.469029 -7.153369 3.445556 -1.417508 -2.823248 0.000000 0.000000 0.000000 3.624157 -0.724753 -3.171699 1.736948 -5.272988 1.266533 2.931483 -1.027406 -2.763736 -19.848126 0.751541 7.739073 -53.945368 19.312002 1.689674 -1.119989 -26.462619 5.522548 2.771297 -0.884153 -1.459470 8.005090 7.403973 1.920650 63.350243 -2.169857 -10.731387 0.878789 44.011883 -0.439652 0.000000 -0.000000 -0.000000 -3.484343 22.088754 -1.793090 -1.790120 3.177136 19.978917 0.000000 -0.000000 0.000000 -1.425306 5.454163 -17.355289 5.658157 -7.089101 13.784137 
0.090359 0.640781 -2.264301 -3.174531 26.574091 -9.441651 -0.000000 -0.000000 0.000000 3.305123 -1.635336 -7.069386 3.533951 -1.448573 -2.712065 0.000000 0.000000 0.000000 3.676178 -0.718552 -3.056515 1.816267 -5.081673 1.396505 3.014100 -1.033235 -2.648062 -19.608860 0.651389 7.690745 -54.343940 19.417444 1.607349 -1.159421 -26.916248 5.432241 2.848307 -0.890514 -1.413774 8.165746 7.501374 1.946528 63.254572 -2.175221 -10.553888 0.897556 44.626298 -0.417648 0.000000 -0.000000 -0.000000 -3.341333 21.767502 -1.331388 -2.220467 2.789430 20.042735 0.000000 -0.000000 0.000000 -1.197501 6.146048 -17.579851 5.773561 -7.121327 14.387181 
0.289257 0.635879 -2.338006 -2.946898 24.918994 -9.360215 -0.000000 -0.000000 0.000000 3.418674 -1.884315 -7.025807 3.617744 -1.489504 -2.590952 0.000000 0.000000 0.000000 3.721372 -0.724734 -2.934274 1.894128 -4.832322 1.520704 3.092158 -1.049088 -2.530703 -19.443135 0.586537 7.636878 -54.613482 19.354084 1.517948 -1.200309 -27.320739 5.340099 2.919561 -0.912884 -1.362756 8.298978 7.585821 1.970887 63.172796 -2.170794 -10.394756 0.916771 45.214202 -0.395641 0.000000 -0.000000 -0.000000 -3.280391 21.334685 -0.995529 -2.653307 2.373408 20.378326 0.000000 -0.000000 0.000000 -1.043811 6.804137 -17.831493 5.858352 -7.133289 15.100011 
0.536724 0.632836 -2.411379 -2.704770 23.093739 -9.257464 -0.000000 -0.000000 0.000000 3.586468 -2.108820 -6.987842 3.697526 -1.532767 -2.470108 0.000000 0.000000 0.000000 3.762437 -0.737251 -2.807381 1.978742 -4.524880 1.624754 3.168839 -1.063617 -2.409398 -19.355959 0.525644 7.568528 -54.835630 19.260210 1.438240 -1.278369 -27.681219 5.274595 2.986103 -0.940690 -1.308917 8.411708 7.653697 1.995454 63.105700 -2.175556 -10.268561 0.935095 45.712051 -0.373793 0.000000 -0.000000 -0.000000 -3.298199 20.841795 -0.782879 -3.070074 1.972545 20.875283 0.000000 -0.000000 0.000000 -0.947549 7.384544 -18.099952 5.913621 -7.127914 15.909568 
0.830811 0.630599 -2.483811 -2.459804 21.201030 -9.137903 -0.000000 -0.000000 0.000000 3.746986 -2.334389 -6.979076 3.770265 -1.574193 -2.344914 0.000000 0.000000 0.000000 3.809177 -0.749199 -2.682433 2.071173 -4.165213 1.715181 3.252926 -1.075549 -2.287704 -19.369685 0.478994 7.486768 -55.011602 19.182738 1.375446 -1.359300 -28.022820 5.199145 3.058984 -0.972848 -1.259144 8.487022 7.703320 2.018888 63.049253 -2.195379 -10.164062 0.952223 46.099639 -0.351571 0.000000 -0.000000 -0.000000 -3.392356 20.379109 -0.706786 -3.407119 1.689725 21.572110 0.000000 -0.000000 0.000000 -0.914476 7.842980 -18.363586 5.965847 -7.052818 16.745379 
1.169258 0.624648 -2.557356 -2.227974 19.449907 -9.028316 -0.000000 -0.000000 0.000000 3.889674 -2.546420 -6.999533 3.853776 -1.606024 -2.236780 0.000000 0.000000 0.000000 3.866115 -0.753484 -2.559641 2.125657 -3.828117 1.806112 3.351763 -1.081792 -2.172953 -19.466238 0.400463 7.367898 -55.105981 19.166546 1.337234 -1.444143 -28.330861 5.116919 3.141973 -1.000401 -1.213757 8.506587 7.730770 2.039996 63.007936 -2.254247 -10.095346 0.970040 46.373497 -0.330501 0.000000 -0.000000 -0.000000 -3.589192 19.975874 -0.699038 -3.719220 1.339566 22.362210 0.000000 -0.000000 0.000000 -0.945623 8.175717 -18.721473 6.014868 -6.865857 17.758244 
1.544830 0.619346 -2.629067 -2.027565 17.943991 -8.940031 -0.000000 -0.000000 0.000000 3.996263 -2.713787 -7.045079 3.946636 -1.632274 -2.142251 0.000000 0.000000 0.000000 3.930989 -0.750565 -2.445249 2.085709 -3.565359 1.893698 3.463327 -1.083778 -2.068795 -19.638720 0.319299 7.219922 -55.152313 19.196219 1.271043 -1.519691 -28.541565 5.029065 3.238010 -1.020985 -1.176766 8.471093 7.749334 2.055115 62.975488 -2.317100 -10.032742 0.984978 46.516615 -0.308141 0.000000 -0.000000 -0.000000 -3.843583 19.549603 -0.740246 -3.972223 0.961404 23.127562 0.000000 -0.000000 0.000000 -1.050061 8.386507 -19.170972 5.997741 -6.735641 18.941758 
1.950425 0.618258 -2.697195 -1.891066 16.846478 -8.880904 -0.000000 -0.000000 0.000000 4.056129 -2.854192 -7.134689 4.046668 -1.643189 -2.072641 0.000000 0.000000 0.000000 4.004131 -0.737710 -2.350772 2.020179 -3.269295 1.975560 3.579225 -1.078208 -1.985061 -19.879196 0.218581 7.072902 -55.108551 19.257208 1.229738 -1.594991 -28.705793 4.932945 3.337689 -1.032633 -1.149627 8.395095 7.761232 2.067870 62.950037 -2.427163 -10.035679 0.997741 46.549568 -0.286681 0.000000 -0.000000 -0.000000 -4.137907 19.083336 -0.867502 -4.105624 0.638615 23.814230 0.000000 -0.000000 0.000000 -1.210302 8.452964 -19.581619 5.946780 -6.623977 20.115083 
2.379119 0.625338 -2.759120 -1.825878 16.123676 -8.844991 -0.000000 -0.000000 0.000000 4.115837 -2.947637 -7.265541 4.152296 -1.640783 -2.029077 0.000000 0.000000 0.000000 4.087181 -0.715408 -2.267647 1.920529 -3.076923 2.055657 3.698189 -1.060823 -1.914470 -20.135858 0.098954 6.930775 -54.986767 19.354365 1.186363 -1.613455 -28.783862 4.798562 3.441748 -1.030616 -1.133227 8.284682 7.773674 2.077341 62.943628 -2.574550 -10.096872 1.009727 46.537064 -0.266640 0.000000 -0.000000 -0.000000 -4.463043 18.589276 -1.089447 -4.162514 0.303645 24.443385 0.000000 -0.000000 0.000000 -1.409566 8.326427 -19.907050 5.870658 -6.514863 21.188926 
2.825853 0.642304 -2.814421 -1.845972 15.900844 -8.844674 -0.000000 -0.000000 0.000000 4.146945 -2.998429 -7.400532 4.259564 -1.619007 -1.998257 0.000000 0.000000 0.000000 4.179005 -0.683643 -2.191426 1.803514 -2.946907 2.113024 3.818409 -1.035146 -1.850468 -20.385191 -0.029492 6.797507 -54.764020 19.579410 1.111841 -1.599851 -28.858040 4.649946 3.552896 -1.016555 -1.127066 8.171843 7.788128 2.087218 62.945886 -2.754790 -10.273698 1.021724 46.534534 -0.244860 0.000000 -0.000000 -0.000000 -4.803699 18.108071 -1.379436 -4.131338 -0.041287 25.031735 0.000000 -0.000000 0.000000 -1.636991 8.031610 -20.117011 5.755243 -6.429927 22.075814 
3.284146 0.668129 -2.863577 -1.909008 16.060103 -8.864282 -0.000000 -0.000000 0.000000 4.133884 -2.995512 -7.435748 4.362963 -1.578933 -1.973704 0.000000 0.000000 0.000000 4.269312 -0.638993 -2.126539 1.699377 -2.852484 2.149935 3.931638 -0.992862 -1.793860 -20.590159 -0.178908 6.667389 -54.543193 19.854130 0.991135 -1.560078 -28.902636 4.467950 3.657192 -0.977214 -1.119990 8.081586 7.902289 2.103444 62.948563 -2.903971 -10.486765 1.033307 46.617898 -0.225534 0.000000 -0.000000 -0.000000 -5.156286 17.682816 -1.714879 -4.000826 -0.353544 25.518160 0.000000 -0.000000 0.000000 -1.894887 7.569364 -20.122912 5.637291 -6.386792 22.642326 
